<svg width="56" height="83" viewBox="0 0 56 83" fill="none" xmlns="http://www.w3.org/2000/svg">
  <path d="M55.0956 31.2156C54.6344 33.8673 53.8992 36.4106 52.7802 38.8456C50.9636 42.8013 48.3261 46.1222 44.9398 48.874C43.1148 50.3572 41.0692 51.4434 38.9692 52.4503L38.9546 52.4576L38.713 52.5722L38.2895 52.7723L38.028 52.8807V51.9093C38.0259 51.8217 38.0259 51.7331 38.027 51.6445C38.028 51.5549 38.0291 51.4663 38.0291 51.3766C38.0291 40.0849 38.0081 28.7932 38.0468 17.5004C38.0542 15.3615 37.4905 13.4655 36.2125 11.7821C35.2786 10.5501 34.0665 9.66197 32.6567 8.99279C30.9583 8.1881 29.1826 8.06927 27.3754 8.24126C25.5494 8.41533 23.941 9.22002 22.3973 10.1727C21.2438 10.8846 20.0579 11.5424 18.8876 12.2282C17.2499 13.1872 15.6163 14.1555 13.9754 15.1093C12.459 15.9911 10.9646 16.9177 9.4063 17.7224C5.75224 19.6091 3.94194 24.1172 4.72421 27.804C5.15718 29.8397 6.05971 31.5669 7.60541 32.9469C9.25675 34.4208 11.2417 34.7116 13.3898 34.6512C14.3404 34.6241 14.9543 34.5938 16.2062 34.1425C17.7592 33.3878 17.5532 33.3753 18.2371 33.0126L19.262 32.456V33.6088C19.2683 37.749 19.2641 41.8892 19.2787 46.0294C19.3112 54.8112 19.3237 63.594 19.4116 72.3747C19.4377 74.9316 18.4557 77.009 16.8849 78.9144C15.5473 80.5373 13.7642 81.5192 11.7813 81.8851C9.90829 82.2311 7.92857 82.3301 6.1235 81.3587C5.28162 80.9053 4.33726 80.5436 3.65748 79.9088C2.72671 79.0384 1.91412 78.0055 1.21238 76.937C0.209448 75.41 -0.00912557 73.661 0.000286718 71.8421C0.0368901 64.7739 0.0149296 57.7058 0.0149296 50.6376C0.0149296 43.6122 0.0316608 36.5858 0.00656132 29.5593C-0.00285097 27.0566 0.272198 24.5779 0.837981 22.1639C1.31592 20.1271 2.06995 18.1404 2.84489 16.1871C4.13856 12.9245 6.20089 10.1248 8.65541 7.65546C9.95326 6.3494 11.4979 5.26953 13.007 4.19383C14.7838 2.92634 16.7709 2.03096 18.85 1.36073C21.0273 0.659233 23.2591 0.196433 25.5463 0.0682241C28.0635 -0.0724926 30.5839 -0.021418 33.0604 0.468484C35.2179 0.894804 37.3367 1.49624 39.306 2.51357C40.3623 3.05976 41.4342 3.58614 42.4413 4.21259C44.6679 5.59578 46.679 7.24269 48.392 9.24087C49.8363 10.9243 51.2324 12.6629 52.1768 14.6621C53.0887 16.5936 53.9494 18.597 54.4598 20.6598C55.3142 24.112 55.72 27.6258 55.0956 31.2156Z" fill="#2364c7" />
</svg>