<svg width="161" height="192" viewBox="0 0 161 192" fill="none" xmlns="http://www.w3.org/2000/svg">
<rect x="8" y="7" width="146" height="39" rx="19.5" fill="#F1AB2D"/>
<path d="M13.8912 178.198C6.21932 170.894 5.39513 158.291 12.0504 150.049L121.167 14.9228C127.822 6.68115 139.437 5.92158 147.109 13.2262C154.781 20.5309 155.605 33.1336 148.95 41.3752L39.8329 176.502C33.1776 184.743 21.5632 185.503 13.8912 178.198Z" fill="#1FB4BC"/>
<rect x="9" y="144" width="146" height="39" rx="19.5" fill="#F22E61"/>
<path fill-rule="evenodd" clip-rule="evenodd" d="M138.264 7.20826C147.101 9.06429 153.736 16.9031 153.736 26.2917C153.736 37.0612 145.005 45.7917 134.236 45.7917H96L121.903 13.7145C126.12 8.49183 132.329 6.27371 138.264 7.20826Z" fill="#6147A7"/>
<path fill-rule="evenodd" clip-rule="evenodd" d="M66.5268 144L40.2812 176.502C37.3317 180.154 33.4083 182.337 29.2857 183H27.4483C20.2569 183 13.9747 179.107 10.5941 173.314C8.59034 169.651 7.7353 165.431 8.07116 161.299C9.16466 151.566 17.423 144 27.4483 144H66.5268Z" fill="#2E3372"/>
</svg>
